<svg id="Capa_1" enable-background="new 0 0 512 512" height="512" viewBox="0 0 512 512" width="512" xmlns="http://www.w3.org/2000/svg"><g><path d="m233.166 135.667h-120c-4.143 0-7.5 3.358-7.5 7.5s3.357 7.5 7.5 7.5h120c4.143 0 7.5-3.358 7.5-7.5s-3.357-7.5-7.5-7.5z"/><path d="m144.549 328.727c-17.259-3.151-33.747-9.117-49.009-17.731-2.84-1.604-6.391-1.188-8.784 1.03-13.438 12.451-30.931 19.308-49.256 19.308-3.374 0-6.716-.229-10.014-.684 14.516-10.125 25.801-24.531 32.053-41.363.992-2.672.384-5.676-1.569-7.751-27.71-29.446-42.97-67.931-42.97-108.369 0-87.214 70.953-158.167 158.167-158.167 76.434 0 141.863 54.483 155.578 129.549.744 4.074 4.656 6.774 8.726 6.03 4.075-.745 6.774-4.651 6.03-8.726-15.018-82.195-86.653-141.853-170.334-141.853-95.484 0-173.167 77.682-173.167 173.167 0 42.655 15.51 83.329 43.774 115.074-7.604 17.112-21.642 30.756-39.089 37.819-2.831 1.147-4.685 3.897-4.685 6.952 0 3.056 1.854 5.806 4.686 6.952 10.439 4.226 21.479 6.369 32.814 6.369 20.295 0 39.745-6.969 55.345-19.729 15.393 8.075 31.854 13.747 49.011 16.878 4.07.745 7.98-1.956 8.725-6.031.743-4.074-1.957-7.981-6.032-8.724z"/><path d="m113.166 195.667c-4.143 0-7.5 3.358-7.5 7.5s3.357 7.5 7.5 7.5h84.812c4.143 0 7.5-3.358 7.5-7.5s-3.357-7.5-7.5-7.5z"/><path d="m240.666 173.167c0-4.142-3.357-7.5-7.5-7.5h-120c-4.143 0-7.5 3.358-7.5 7.5s3.357 7.5 7.5 7.5h120c4.143 0 7.5-3.358 7.5-7.5z"/><path d="m376.333 264.482c-13.82 0-26.895 4.629-37.5 13.163-10.604-8.533-23.679-13.163-37.5-13.163-33.084 0-60 26.916-60 60 0 31.114 16.466 61.686 47.616 88.41 23.019 19.747 45.761 30.443 46.717 30.889 1.004.467 2.086.701 3.167.701s2.163-.234 3.167-.701c.956-.446 23.698-11.142 46.717-30.889 31.15-26.724 47.616-57.296 47.616-88.41 0-33.084-26.916-60-60-60zm-37.5 164.106c-15.509-8.095-82.5-46.417-82.5-104.106 0-24.813 20.187-45 45-45 12.187 0 23.602 4.802 32.143 13.521 1.41 1.44 3.341 2.252 5.357 2.252s3.947-.812 5.357-2.251c8.542-8.719 19.957-13.521 32.143-13.521 24.813 0 45 20.187 45 45 0 57.692-67 96.016-82.5 104.105z"/><path d="m507.314 491.727c-17.446-7.063-31.485-20.707-39.09-37.819 28.266-31.746 43.776-72.419 43.776-115.075 0-95.484-77.683-173.167-173.167-173.167s-173.166 77.683-173.166 173.167 77.682 173.167 173.166 173.167c28.006 0 55.66-6.808 80.321-19.73 15.601 12.761 35.051 19.73 55.346 19.73 11.335 0 22.376-2.143 32.814-6.37 2.832-1.146 4.686-3.896 4.686-6.952 0-3.055-1.854-5.805-4.686-6.951zm-32.814 5.273c-18.324 0-35.817-6.857-49.257-19.308-1.421-1.317-3.251-1.999-5.099-1.999-1.262 0-2.532.318-3.685.969-23.57 13.305-50.413 20.338-77.626 20.338-87.213 0-158.166-70.953-158.166-158.167s70.953-158.167 158.166-158.167c87.214.001 158.167 70.954 158.167 158.167 0 40.438-15.261 78.924-42.971 108.368-1.953 2.076-2.562 5.08-1.568 7.751 6.252 16.833 17.537 31.239 32.053 41.363-3.298.456-6.64.685-10.014.685z"/></g></svg>